<svg t="1589953133922" class="icon" viewBox="0 0 1024 1024" version="1.1" xmlns="http://www.w3.org/2000/svg" p-id="15102" width="128" height="128"><path d="M472.04 938.05c105.85-144.62 178.26-321.34 221.08-600.1 1.15 18.88 1.15 37.82 0 56.7-0.98 135.33-27.4 269.27-77.88 394.84a19.542 19.542 0 0 0 2.35 18.17c3.8 5.37 9.92 8.63 16.49 8.77 67.5 2.56 216.48-13.27 229.84-222.46 11.79-185.18-86.17-413.26-135.37-521.65-8.65-19.04-14.45-0.87-19.92 19.95-20.01 75.61-147.97 150.36-216.84 245.65-142.59 197.3-91.92 339.13 16.8 440.18 7.84 7.1 9.32 18.88 3.46 27.69-18.5 28.59-30.63 79.01-74.18 102.65-70.7 38.63 0.33 75.89 34.29 29.65l-0.12-0.04z m-102.8-348.18a963.675 963.675 0 0 1-65.35-274.89c-0.6-4.61-4.82-7.86-9.42-7.26a8.406 8.406 0 0 0-7.19 6.83c-17.1 139.87 25.7 224.51 45.62 286.81 1.46 4.53 0.58 9.49-2.35 13.24-3 3.82-7.64 5.99-12.5 5.85-49.77-0.64-158.7-17.83-160.26-172.05-1.3-136.72 79.78-300.74 120.2-378.55 7.08-13.69 10.7 0 13.85 15.39 11.79 56.4 102.79 116.13 149.64 188.78 6.78 10.48 12.88 20.69 18.29 30.63-5.28 6.39-10.38 12.82-15.09 19.4-75.42 104.43-92.96 192.25-75.42 265.9v-0.08z" p-id="15103" fill="#3CB371"></path></svg>