<svg t="1589953685272" class="icon" viewBox="0 0 1024 1024" version="1.1" xmlns="http://www.w3.org/2000/svg" p-id="19339" width="128" height="128"><path d="M512 512m-512 0a512 512 0 1 0 1024 0 512 512 0 1 0-1024 0Z" fill="#178DFF" p-id="19340"></path><path d="M815.045486 445.537524c-7.187505-15.701333-22.840076-25.84381-39.877486-25.84381H683.641905v-0.682666c0-8.182248-4.583619-15.291733-11.332267-18.919619a87.04 87.04 0 0 0 22.410972-58.61181c0-48.479086-39.438629-87.917714-87.917715-87.917714-11.595581 0-21.942857 2.769676-21.952609 2.779428l-200.479696 53.940419a54.769371 54.769371 0 0 0-42.695923 53.345524c0 12.804876 4.437333 24.585752 11.83939 33.918781H352.060952c-11.829638 0-21.455238 9.6256-21.455238 21.455238v0.692419h-91.526095c-17.03741 0-32.689981 10.142476-39.887238 25.84381C183.734857 479.349029 175.542857 519.957943 175.542857 563.004952c0 43.027505 8.182248 83.646171 23.659276 117.447924 7.187505 15.701333 22.840076 25.84381 39.877486 25.84381h64.619276l-4.944457 34.6112h-2.067505a10.386286 10.386286 0 0 0 0 20.772571h77.531429a10.386286 10.386286 0 0 0 0-20.772571h-2.077257l-4.944457-34.620953h279.854323l-4.944457 34.620953h-2.077257a10.386286 10.386286 0 0 0 0 20.772571h77.531429a10.386286 10.386286 0 0 0 0-20.772571h-2.067505l-4.944457-34.620953h64.619276c17.03741 0 32.689981-10.142476 39.887238-25.843809C830.512762 646.641371 838.704762 606.032457 838.704762 563.004952c0-43.037257-8.182248-83.646171-23.659276-117.457676zM606.802895 274.334476a67.223162 67.223162 0 0 1 67.145143 67.154895 66.423467 66.423467 0 0 1-23.532495 50.926934V330.410667c0-11.83939-9.6256-21.455238-21.455238-21.455238H584.655238c-11.83939 0-21.455238 9.615848-21.455238 21.455238v62.005638a66.423467 66.423467 0 0 1-23.542248-50.926934 67.223162 67.223162 0 0 1 67.145143-67.154895z m-22.840076 78.916267V330.410667c0-0.390095 0.312076-0.692419 0.682667-0.692419h44.314819c0.380343 0 0.682667 0.312076 0.682666 0.682666v22.849829H583.972571z m45.689905 20.772571v23.532496h-45.689905v-23.532496h45.689905z m-95.007695-82.661181a87.400838 87.400838 0 0 0-15.750096 50.127238c0 20.957867 7.265524 40.569905 20.187429 56.066439h-99.864381a54.408533 54.408533 0 0 0 11.83939-33.918781c0-17.934629-8.679619-33.879771-22.059885-43.856458l105.647543-28.418438z m-138.27901 38.356115a33.95779 33.95779 0 0 1 33.918781 33.918781 33.95779 33.95779 0 0 1-33.918781 33.918781 33.95779 33.95779 0 0 1-33.918781-33.918781 33.95779 33.95779 0 0 1 33.918781-33.918781z m-44.997486 89.302552c0-0.390095 0.312076-0.692419 0.692419-0.692419h310.125715c0.380343 0 0.682667 0.302324 0.682666 0.682667v22.157409a0.682667 0.682667 0 0 1-0.682666 0.682667H352.060952a0.682667 0.682667 0 0 1-0.682666-0.682667v-22.147657zM319.73181 740.888381l8.026209-56.173714a0.692419 0.692419 0 0 1 0.682667-0.585143h14.014171c0.341333 0 0.643657 0.253562 0.682667 0.585143l8.026209 56.173714h-31.431923z m343.352076 0l8.026209-56.173714a0.692419 0.692419 0 0 1 0.682667-0.585143h14.014171c0.341333 0 0.633905 0.253562 0.682667 0.585143l8.02621 56.173714h-31.431924z m133.08099-69.105371a23.278933 23.278933 0 0 1-20.996876 13.7216h-2.925714V518.690133a10.386286 10.386286 0 0 0-20.762819 0v166.824229h-43.895467l-0.536381-3.72541a21.562514 21.562514 0 0 0-21.240686-18.432h-14.023923a21.562514 21.562514 0 0 0-21.240686 18.432l-0.526629 3.72541H364.231924l-0.526629-3.72541a21.562514 21.562514 0 0 0-21.250438-18.432h-14.014171a21.562514 21.562514 0 0 0-21.240686 18.432l-0.536381 3.72541h-43.895467V518.690133a10.386286 10.386286 0 0 0-20.772571 0v166.824229h-2.925714a23.278933 23.278933 0 0 1-20.987124-13.7216c-14.043429-30.661486-21.777067-69.300419-21.777067-108.797562 0-39.497143 7.733638-78.136076 21.777067-108.807314a23.278933 23.278933 0 0 1 20.996876-13.7216h2.925714v33.918781a10.386286 10.386286 0 0 0 20.762819 0v-33.918781H330.605714v0.682666c0 11.83939 9.6256 21.46499 21.455238 21.464991h22.849829v0.692419a10.386286 10.386286 0 0 0 20.772571 0v-0.682667h222.890667v0.682667a10.386286 10.386286 0 0 0 20.772571 0v-0.682667H662.186667c11.829638 0 21.455238-9.635352 21.455238-21.46499v-0.692419h67.847314v33.918781a10.386286 10.386286 0 0 0 20.772571 0v-33.918781h2.915962c8.933181 0 17.173943 5.383314 20.987124 13.7216 14.043429 30.661486 21.777067 69.310171 21.777067 108.807314s-7.733638 78.136076-21.777067 108.797562z" fill="#FFFFFF" p-id="19341"></path></svg>