<svg t="1589873326927" class="icon" viewBox="0 0 1024 1024" version="1.1" xmlns="http://www.w3.org/2000/svg" p-id="10394" width="128" height="128"><path d="M903.168 751.616c-69.12-84.48-99.328-219.648-99.328-346.112 0-120.32-38.912-291.328-260.096-301.056-1.024 0-2.048-1.024-2.048-2.048v-28.16c0-14.336-7.68-25.088-20.48-28.672C501.248 39.936 481.28 56.32 481.28 77.312v25.6c0 1.024-1.024 2.048-2.048 2.048-44.032 2.56-119.296 17.408-178.688 71.68l-43.52-61.952c-9.216-11.776-27.136-14.848-41.984-6.144h-0.512c-11.776 9.216-14.848 30.208-5.632 41.984l548.352 782.848c9.216 11.776 27.136 14.848 41.984 6.144h0.512c11.776-9.216 14.848-30.208 5.632-41.984l-30.72-44.032h89.088c39.424 0.512 108.544-17.92 39.424-101.888zM608.256 803.328L269.824 346.624c-1.536-2.56-3.584-5.12-5.12-7.68l-1.024-1.024c-13.312-16.896-39.936-8.704-41.984 12.288-1.536 16.384-2.048 33.792-2.048 52.224 0 138.752-36.352 268.288-93.184 343.552-57.344 72.192-38.912 108.544 17.92 108.544h441.344c24.576 0 38.4-27.648 24.576-47.616-0.512-1.536-1.536-2.56-2.048-3.584zM600.064 886.784H423.424c-1.024 0-2.048 1.024-2.048 2.048 0.512 13.824 8.192 88.064 90.112 88.064s89.6-74.24 90.112-88.064c0.512-1.024-0.512-2.048-1.536-2.048z" fill="#bfbfbf" p-id="10395"></path></svg>