<svg t="1589873349878" class="icon" viewBox="0 0 1024 1024" version="1.1" xmlns="http://www.w3.org/2000/svg" p-id="13012" width="128" height="128"><path d="M1008.82963 853.333333H15.17037L151.703704 686.459259V426.666667C151.703704 229.451852 320.474074 56.888889 512 56.888889s360.296296 172.562963 360.296296 369.777778v259.792592l136.533334 166.874074z m-834.370371-75.851852h675.081482L796.444444 713.007407V426.666667C796.444444 271.17037 663.703704 132.740741 512 132.740741s-284.444444 138.42963-284.444444 293.925926v286.34074L174.459259 777.481481z" fill="#d81e06" p-id="13013"></path><path d="M379.259259 682.666667h-75.851852V453.214815c0-54.992593 17.066667-108.088889 49.303704-151.703704l62.577778 43.614815c-22.755556 32.237037-34.133333 70.162963-34.133333 108.088889V682.666667H379.259259z" fill="#d81e06" p-id="13014"></path><path d="M512 151.703704c-41.718519 0-75.851852-34.133333-75.851852-75.851852s34.133333-75.851852 75.851852-75.851852 75.851852 34.133333 75.851852 75.851852-34.133333 75.851852-75.851852 75.851852z m0-75.851852zM512 1024c-94.814815 0-170.666667-75.851852-170.666667-170.666667h75.851852c0 53.096296 41.718519 94.814815 94.814815 94.814815s94.814815-41.718519 94.814815-94.814815h75.851852c0 94.814815-75.851852 170.666667-170.666667 170.666667z" fill="#F56C6C" p-id="13015"></path></svg>