<svg t="1584600579134" class="icon" viewBox="0 0 1024 1024" version="1.1" xmlns="http://www.w3.org/2000/svg" p-id="1462" width="128" height="128"><path d="M0 232.727273h1024v791.272727H0V232.727273z m93.090909 93.090909v605.090909h837.818182V325.818182H93.090909z m139.636364 372.363636v-139.636363H93.090909v-93.09091h139.636364V93.090909H93.090909v837.818182h139.636364v-139.636364H93.090909v-93.090909h139.636364z m232.727272 0v-139.636363h-139.636363v139.636363h139.636363z m0 93.090909h-139.636363v139.636364h139.636363v-139.636364z m93.09091 0v232.727273H0V0h558.545455v465.454545h93.090909v93.09091h-93.090909v139.636363h93.090909v93.090909h-93.090909z m-93.09091-325.818182V93.090909h-139.636363v372.363636h139.636363z m279.272728 0h93.090909v93.09091h-93.090909v-93.09091z m0 232.727273h93.090909v93.090909h-93.090909v-93.090909z" fill="#bfbfbf" p-id="1463"></path></svg>