<svg t="1589953516564" class="icon" viewBox="0 0 1024 1024" version="1.1" xmlns="http://www.w3.org/2000/svg" p-id="17916" width="128" height="128"><path d="M319.872 937.472V421.888h384.256v515.584H319.872z m491.648-394.666667c11.861333 0 21.504 8.618667 21.504 19.328v161.066667c0 10.666667-9.642667 19.328-21.504 19.328h-80.128v-199.765333h80.128z m-518.912 0v199.722667H212.437333c-11.861333 0-21.461333-8.618667-21.461333-19.328v-161.066667c0-10.666667 9.6-19.370667 21.461333-19.370666h80.170667z m248.533333-489.216c92.245333 12.672 162.986667 84.181333 162.986667 170.666667H319.914667c0-86.528 70.698667-157.994667 162.986666-170.666667V18.474667C482.816 8.277333 495.872 0 512 0c16.085333 0 29.141333 8.277333 29.141333 18.517333v35.072zM307.669333 397.397333c-17.365333 0-31.445333-12.714667-31.445333-28.330666V277.12c0-15.616 14.08-28.288 31.445333-28.288h408.661334c17.322667 0 31.402667 12.672 31.402666 28.288V369.066667c0 15.616-14.08 28.330667-31.402666 28.330666H307.626667z m432.384 564.608c19.029333 0 34.474667 13.866667 34.474667 30.976 0 17.109333-15.445333 31.018667-34.474667 31.018667H283.946667c-19.029333 0-34.432-13.909333-34.432-31.018667 0-17.066667 15.36-30.976 34.389333-30.976h456.106667zM512 542.762667c-61.312 0-110.976 44.757333-110.976 99.882666 0 55.210667 49.664 99.882667 110.976 99.882667 61.269333 0 110.933333-44.672 110.933333-99.84S573.312 542.72 512 542.72z m348.245333 144.298666v-88.789333H938.666667v88.746667h-78.421334zM85.333333 687.061333v-88.789333h78.421334v88.746667H85.333333z m351.232-44.373333c0-37.546667 33.749333-67.925333 75.434667-67.925333 41.642667 0 75.392 30.378667 75.392 67.882666 0 37.546667-33.706667 67.925333-75.392 67.925334-41.685333 0-75.434667-30.421333-75.434667-67.925334z" p-id="17917" fill="#B22222"></path></svg>