<svg t="1589953282659" class="icon" viewBox="0 0 1024 1024" version="1.1" xmlns="http://www.w3.org/2000/svg" p-id="16224" width="150" height="150"><path d="M948.036814 712.73799h-214.328842A48.385348 48.385348 0 0 1 689.862923 657.764756v1.513433l-2.75979-40.862695a107.320216 107.320216 0 0 0-28.265589-60.893428 89.02548 89.02548 0 0 0-55.017747-22.25637L155.710046 534.241903v44.51274c0 26.930208-40.996233 43.666998-70.50818 43.666998A56.887281 56.887281 0 0 1 22.171826 578.754643l-0.267076-88.71389V216.688017c0-26.707644 40.061466-41.396848 70.241103-41.396848A60.492813 60.492813 0 0 1 155.710046 222.652725v44.512739h222.563699s-0.267076-131.000993 0-133.538219l-126.06008-1.201844a67.570339 67.570339 0 0 1 0-132.425401H645.350184a58.445227 58.445227 0 0 1 45.803609 67.570339l-1.379895 1.424408A54.528106 54.528106 0 0 1 645.350184 133.627245h-133.53822v130.021713l109.0117 1.379895c108.165958 0 194.609698 17.538019 266.052646 82.170518l2.403688 3.471993a345.463374 345.463374 0 0 1 112.617231 252.476261V663.328849a51.456727 51.456727 0 0 1-53.860415 49.409141z m-108.165957 50.343909v-0.400615l6.009219-5.252503 6.49886 6.053732 0.445128-0.400614v0.400614c50.566472 50.655498 103.892735 104.115298 103.892735 163.228217a82.348569 82.348569 0 0 1-7.433628 37.791316v0.400615a113.641025 113.641025 0 0 1-22.25637 29.73451l-1.869535 1.201844a117.113018 117.113018 0 0 1-34.76445 20.119759l-0.934767 1.157331a126.772283 126.772283 0 0 1-43.577973 6.854962 120.184398 120.184398 0 0 1-42.687717-6.854962 127.172898 127.172898 0 0 1-36.144345-21.27709 98.417668 98.417668 0 0 1-24.125905-31.158918 96.637158 96.637158 0 0 1-8.323882-37.791316c0.133538-58.801329 54.839695-113.151385 105.406168-163.806882z" fill="#008080" p-id="16225"></path></svg>