<svg t="1579492492495" class="icon" viewBox="0 0 1024 1024" version="1.1" xmlns="http://www.w3.org/2000/svg" p-id="7217" width="200" height="200"><path d="M1013.077333 420.394667a21.077333 21.077333 0 0 0-21.546666 0.426666L768 557.568v-118.613333a21.333333 21.333333 0 0 0-32.469333-18.176L512 557.568v-118.570667a21.418667 21.418667 0 0 0-32.341333-18.304l-237.44 143.061334L222.08 20.522667a21.333333 21.333333 0 0 0-21.333333-20.522667H45.909333a21.333333 21.333333 0 0 0-21.333333 20.821333l-23.125333 981.333334A21.333333 21.333333 0 0 0 22.741333 1024H1002.666667a21.333333 21.333333 0 0 0 21.333333-21.333333V438.997333a21.333333 21.333333 0 0 0-10.922667-18.602666zM469.333333 476.757333V981.333333H257.706667l-13.696-368.768L469.333333 476.757333zM44.586667 981.333333l22.144-938.666666h113.450666l20.693334 558.293333c0 0.256-0.170667 0.469333-0.170667 0.725333l14.165333 376.490667 0.128 3.157333H44.586667zM512 607.616l213.333333-130.56V981.333333h-213.333333v-373.717333zM981.333333 981.333333h-213.333333v-373.717333l213.333333-130.56V981.333333z" p-id="7218"></path><path d="M362.965333 731.093333a21.333333 21.333333 0 0 0 21.333334-21.333333v-53.632a21.333333 21.333333 0 0 0-42.666667 0v53.632a21.333333 21.333333 0 0 0 21.333333 21.333333zM619.008 634.794667a21.333333 21.333333 0 0 0-21.333333 21.333333v53.632a21.333333 21.333333 0 0 0 42.666666 0v-53.632a21.333333 21.333333 0 0 0-21.333333-21.333333zM875.008 731.093333a21.333333 21.333333 0 0 0 21.333333-21.333333v-53.632a21.333333 21.333333 0 0 0-42.666666 0v53.632a21.333333 21.333333 0 0 0 21.333333 21.333333z" p-id="7219"></path></svg>