<svg t="1584603674171" class="icon" viewBox="0 0 1024 1024" version="1.1" xmlns="http://www.w3.org/2000/svg" p-id="20932" width="128" height="128"><path d="M825.841 0.006H198.16c-31.311 0-56.692 25.382-56.692 56.692v910.604c0 31.31 25.382 56.691 56.692 56.691h627.681c31.311 0 56.691-25.382 56.691-56.691V56.699c0-31.31-25.381-56.693-56.691-56.693z m-23.309 943.988H221.468V80.006h581.064v863.988z" p-id="20933" fill="#bfbfbf"></path><path d="M750.488 200.765H273.512v211.393h476.977V200.765z m-40 171.393H313.512V240.765h396.977v131.393zM273.512 508.251h115.495v115.495H273.512zM454.253 508.251h115.495v115.495H454.253zM634.993 508.251h115.495v115.495H634.993zM273.512 707.74h115.495v115.494H273.512zM454.253 707.74h115.495v115.494H454.253zM634.993 707.74h115.495v115.494H634.993z" p-id="20934" fill="#bfbfbf"></path></svg>